<svg xmlns="http://www.w3.org/2000/svg" viewBox="0 0 400 280">
  <rect width="400" height="280" fill="#030303"/>
  <rect width="400" height="280" fill="url(#voidGlow)"/>
  <g opacity=".4" stroke="#262626" stroke-width="1">
    <path d="M0 40h400M0 80h400M0 120h400M0 160h400M0 200h400M0 240h400"/>
    <path d="M40 0v280M80 0v280M120 0v280M160 0v280M200 0v280M240 0v280M280 0v280M320 0v280M360 0v280"/>
  </g>
  <g opacity=".22">
    <circle cx="66" cy="54" r="58" fill="#e9ff70"/>
    <circle cx="334" cy="230" r="92" fill="#f5f5f0"/>
  </g>
  <rect x="1" y="1" width="398" height="278" rx="18" fill="none" stroke="#343434" stroke-width="2"/>
  <defs>
    <radialGradient id="voidGlow" cx="12%" cy="16%" r="86%">
      <stop offset="0" stop-color="#18200b"/>
      <stop offset=".36" stop-color="#090a08"/>
      <stop offset="1" stop-color="#030303"/>
    </radialGradient>
  </defs>
</svg>
